<svg version="1.1" id="Livello_1" xmlns="http://www.w3.org/2000/svg" x="0" y="0" viewBox="0 0 150.6 50" xml:space="preserve"><style type="text/css">.st0{fill-rule:evenodd;clip-rule:evenodd}.st0,.st1{fill:#fff}</style><g id="Livello_1-2"><path class="st0" d="M9 7.5v3.2c2.9-2.8 5.8-4.2 8.6-4.2 1.7 0 3.3.6 4.5 1.8.7.7 1.2 1.5 1.6 2.4 1-1 2.1-1.8 3.3-2.5 1.7-1 3.7-1.6 5.8-1.7 1.2 0 2.4.3 3.5.9 1 .5 1.8 1.3 2.4 2.3.8 1.5 1.2 3.8 1.2 6.9V35H31V17.5c0-.8-.1-1.6-.3-2.4-.3-1-1.1-1.4-2.2-1.4-1.5 0-2.8.7-4.1 2.1V35h-8.8V17.5c0-2.6-.8-3.8-2.5-3.8-1.4 0-2.8.7-4.1 2.1V35H.3V7.5H9M58.2 22.6c-1.5.2-3 .6-4.5 1.2-2 .7-3 1.9-3 3.5 0 .7.3 1.4.9 1.8.5.3 1.1.5 1.7.5 1.5 0 3.1-.6 4.8-1.9l.1-5.1m-7-6.5L42.7 15c.4-2.2 1.1-3.9 2.2-5.1 2.1-2.3 5.5-3.4 10.2-3.4 4.6 0 7.8 1 9.8 3.1 1.1 1.1 1.8 2.6 1.9 4.2.1 1 .1 2.4.1 4.1v7c0 5.2.1 8.5.4 10h-8.4l-.3-2.3c-2.5 2-5.3 3-8.2 3-2.6 0-4.7-.7-6.3-2-1.7-1.4-2.6-3.5-2.6-5.7 0-3 1.3-5.3 3.9-7 2-1.3 6.1-2.6 12.1-3.9l.7-.1v-.7c0-1.3-.2-2.2-.7-2.7-.6-.5-1.4-.8-2.5-.8-2.2.2-3.5 1.3-3.8 3.4zM92.7 14.2l-8 .7c-.2-1.7-1-2.5-2.5-2.5-.8 0-1.5.3-2.1.9-.3.4-.5.9-.5 1.5 0 1.1.6 2 1.7 2.5.3.1 1.9.5 4.8 1.1 5.1 1 7.6 3.8 7.6 8.2.1 2.6-1.1 5.1-3.1 6.8-2 1.7-4.9 2.5-8.8 2.5-6.3 0-9.7-2.8-10.2-8.4l8.2-.5c.2 2 1.2 3.1 3 3.1.9.1 1.8-.4 2.3-1.1.3-.4.4-.9.4-1.3 0-1.4-1.1-2.4-3.3-2.8-2.2-.4-3.7-.7-4.7-1-.9-.3-1.7-.6-2.5-1.1-2.3-1.5-3.5-3.8-3.5-6.9-.1-2.6 1.1-5.2 3.2-6.8 1.8-1.5 4.4-2.3 7.7-2.3 1.9 0 3.7.3 5.5 1.1 1.5.6 2.7 1.6 3.6 2.9.7.9 1.1 2.1 1.2 3.4M108.4 0v7.5h5.7v6.1h-5.7v11c0 1.5.1 2.4.2 2.9.2.5.6 1 1.1 1.3s1.1.5 1.7.5 1.4-.2 2.6-.7V35c-1.9.2-3.8.4-5.7.3-2.8 0-4.9-.5-6.2-1.5-1.2-1-2-2.4-2.3-3.9-.2-1.1-.3-2.3-.2-3.4v-13h-4.3v-6h4.3V0h8.8"/><path class="st1" d="M43 45.9c0-2 .5-4 2.8-4s2.8 2 2.8 4-.5 4.1-2.8 4.1c-2.2 0-2.8-2.1-2.8-4.1zm2.8 3.4c1.6 0 1.8-1.9 1.8-3.3s-.2-3.3-1.8-3.3-1.8 1.8-1.8 3.2c0 1.4.2 3.4 1.8 3.4zM50.2 42h2c.5 0 2.5.1 2.5 2 0 1.4-.9 1.8-1.6 2 1.1.3 1.2.9 1.4 1.7l.5 2.2h-1l-.4-1.9c-.2-1.1-.5-1.7-1.7-1.7h-.8v3.5h-.9V42zm.9 3.6h.5c1.1 0 2.2-.2 2.2-1.5s-1.1-1.3-2-1.3h-.7v2.8zM61.3 49.2c-.7.5-1.4.8-2.3.8-2.5 0-3.1-2-3.1-4.3 0-2 .8-3.8 2.9-3.8 1.6 0 2.5 1 2.5 2.3h-1c.1-.8-.5-1.5-1.3-1.5h-.2c-1.6 0-2 1.6-2 3.1s.3 3.6 2.1 3.6c.5 0 1-.1 1.4-.4v-2.7h-1.8v-.7h2.7l.1 3.6zM64.7 42h1.1l2.5 7.8h-.9l-.8-2.4h-2.8l-.8 2.5h-.9l2.6-7.9zm-.6 4.7h2.3l-1.1-3.9-1.2 3.9zM69.4 42h1.1l3.2 6.6V42h.8v7.8h-1.1l-3.2-6.6v6.6h-.8V42zM76.6 42h.9v7.8h-.9V42zM78.8 49.1l3.8-6.3H79V42h4.6v.8l-3.8 6.4h3.9v.7h-4.9v-.8zM84.3 49.1l3.8-6.3h-3.6V42H89v.8l-3.8 6.4h3.9v.7h-4.9v-.8h.1zM90.5 42h.9v7.8h-.9V42zM95 42h1.1l2.5 7.8h-.9l-.7-2.4h-2.8l-.8 2.4h-.9L95 42zm-.6 4.7h2.3l-1.2-3.9-1.1 3.9zM99.7 42h1.3l2.2 6.7 2.2-6.7h1.3v7.8h-.7V43l-2.3 6.9h-.9l-2.3-6.9v6.9h-.8V42zM108.4 45.9c0-2 .5-4 2.8-4s2.8 2 2.8 4-.5 4.1-2.8 4.1-2.8-2.1-2.8-4.1zm2.8 3.4c1.6 0 1.8-1.9 1.8-3.3s-.2-3.3-1.8-3.3-1.8 1.9-1.8 3.3c-.1 1.3.2 3.3 1.8 3.3zM120.9 45.6c.8.4 1.7.9 1.7 2.2 0 1.6-1.3 2.2-2.8 2.2-.6 0-1.2-.1-1.8-.2v-.9c.6.3 1.3.4 1.9.4 1 0 1.7-.5 1.7-1.3 0-.9-.7-1.2-1.3-1.6l-.7-.4c-.7-.4-1.7-.8-1.7-2 0-1.4 1.1-2 2.5-2 .6 0 1.1.1 1.6.2v.8c-.5-.2-1.1-.3-1.7-.3-.9 0-1.5.5-1.5 1.2s.7 1.1 1.3 1.4l.8.3zM123.9 42h3.8v.7h-2.9v2.6h2.8v.7h-2.8v3h3v.7h-3.9V42zM129.2 42h1.9c.5 0 2.5.1 2.5 2 0 1.4-.9 1.8-1.6 2 1.1.3 1.2.9 1.4 1.7l.5 2.2h-.9l-.4-1.8c-.2-1.1-.5-1.7-1.7-1.7h-.8v3.5h-.9V42zm.9 3.6h.5c1.1 0 2.2-.2 2.2-1.5s-1.1-1.3-2-1.3h-.7v2.8zM134.2 42h.9l2.2 6.9 2.2-6.9h.9l-2.6 7.8h-1.1l-2.5-7.8zM141.3 42h.9v7.8h-.9V42zM143.5 49.1l3.8-6.3h-3.6V42h4.6v.8l-3.8 6.4h3.9v.7h-4.9v-.8zM149.7 42h.9v7.8h-.9V42z"/><path fill="#a2c126" d="M0 41.4h39.6v8.3H0z"/></g></svg>